# Blender v2.76 (sub 0) OBJ File: 'untitled.blend'
# www.blender.org
mtllib tank.mtl
o cuerpoTanque_Cylinder.001
v -0.171745 0.920796 -0.458987
v -0.171746 3.020796 -0.230694
v 0.023345 0.920796 -0.439773
v -0.021193 3.020796 -0.215866
v 0.210938 0.920796 -0.382867
v 0.123574 3.020796 -0.171951
v 0.383825 0.920796 -0.290457
v 0.256992 3.020796 -0.100638
v 0.535361 0.920796 -0.166094
v 0.373933 3.020796 -0.004666
v 0.659724 0.920796 -0.014558
v 0.469905 3.020796 0.112276
v 0.752134 0.920796 0.158329
v 0.541218 3.020796 0.245693
v 0.809040 0.920796 0.345922
v 0.585133 3.020796 0.390460
v 0.828255 0.920796 0.541013
v 0.599961 3.020796 0.541013
v 0.809040 0.920796 0.736103
v 0.585133 3.020796 0.691565
v 0.752134 0.920796 0.923696
v 0.541218 3.020796 0.836332
v 0.659724 0.920796 1.096583
v 0.469905 3.020796 0.969750
v 0.535361 0.920796 1.248119
v 0.373933 3.020796 1.086691
v 0.383825 0.920796 1.372482
v 0.256992 3.020796 1.182663
v 0.210938 0.920796 1.464892
v 0.123574 3.020796 1.253976
v 0.023345 0.920796 1.521798
v -0.021193 3.020796 1.297891
v -0.171746 0.920796 1.541013
v -0.171746 3.020796 1.312719
v -0.366836 0.920796 1.521798
v -0.322298 3.020796 1.297891
v -0.554429 0.920796 1.464892
v -0.467065 3.020796 1.253976
v -0.727316 0.920796 1.372482
v -0.600483 3.020796 1.182663
v -0.878853 0.920796 1.248119
v -0.717425 3.020796 1.086691
v -1.003216 0.920796 1.096582
v -0.813396 3.020796 0.969749
v -1.095625 0.920796 0.923695
v -0.884709 3.020796 0.836331
v -1.152531 0.920796 0.736102
v -0.928624 3.020796 0.691564
v -1.171746 0.920796 0.541012
v -0.943452 3.020796 0.541012
v -1.152531 0.920796 0.345921
v -0.928624 3.020796 0.390459
v -1.095625 0.920796 0.158328
v -0.884709 3.020796 0.245693
v -1.003214 0.920796 -0.014559
v -0.813395 3.020796 0.112275
v -0.878851 0.920796 -0.166095
v -0.717424 3.020796 -0.004667
v -0.727315 0.920796 -0.290458
v -0.600482 3.020796 -0.100638
v -0.554428 0.920796 -0.382868
v -0.467064 3.020796 -0.171952
v -0.366834 0.920796 -0.439773
v -0.322297 3.020796 -0.215866
v 0.023345 2.920796 -0.439773
v -0.171745 2.920796 -0.458987
v 0.210938 2.920796 -0.382867
v 0.383825 2.920796 -0.290457
v 0.535361 2.920796 -0.166094
v 0.659724 2.920796 -0.014558
v 0.752134 2.920796 0.158329
v 0.809040 2.920796 0.345922
v 0.828255 2.920796 0.541013
v 0.809040 2.920796 0.736103
v 0.752134 2.920796 0.923696
v 0.659724 2.920796 1.096583
v 0.535361 2.920796 1.248119
v 0.383825 2.920796 1.372482
v 0.210938 2.920796 1.464892
v 0.023345 2.920796 1.521798
v -0.171746 2.920796 1.541013
v -0.366836 2.920796 1.521798
v -0.554429 2.920796 1.464892
v -0.727316 2.920796 1.372482
v -0.878853 2.920796 1.248119
v -1.003216 2.920796 1.096582
v -1.095625 2.920796 0.923695
v -1.152531 2.920796 0.736102
v -1.171746 2.920796 0.541012
v -1.152531 2.920796 0.345921
v -1.095625 2.920796 0.158328
v -1.003214 2.920796 -0.014559
v -0.878851 2.920796 -0.166095
v -0.727315 2.920796 -0.290458
v -0.554428 2.920796 -0.382868
v -0.366834 2.920796 -0.439773
vn 0.098000 0.000000 -0.995200
vn 0.290300 0.000000 -0.956900
vn 0.471400 0.000000 -0.881900
vn 0.634400 0.000000 -0.773000
vn 0.773000 0.000000 -0.634400
vn 0.881900 0.000000 -0.471400
vn 0.956900 0.000000 -0.290300
vn 0.995200 0.000000 -0.098000
vn 0.995200 0.000000 0.098000
vn 0.956900 0.000000 0.290300
vn 0.881900 0.000000 0.471400
vn 0.773000 0.000000 0.634400
vn 0.634400 0.000000 0.773000
vn 0.471400 0.000000 0.881900
vn 0.290300 0.000000 0.956900
vn 0.098000 0.000000 0.995200
vn -0.098000 0.000000 0.995200
vn -0.290300 0.000000 0.956900
vn -0.471400 0.000000 0.881900
vn -0.634400 0.000000 0.773000
vn -0.773000 0.000000 0.634400
vn -0.881900 0.000000 0.471400
vn -0.956900 0.000000 0.290300
vn -0.995200 0.000000 0.098000
vn -0.995200 0.000000 -0.098000
vn -0.956900 0.000000 -0.290300
vn -0.881900 0.000000 -0.471400
vn -0.773000 0.000000 -0.634400
vn -0.634400 0.000000 -0.773000
vn -0.471400 0.000000 -0.881900
vn 0.000000 1.000000 -0.000000
vn -0.098000 0.000000 -0.995200
vn -0.290300 0.000000 -0.956900
vn 0.000000 -1.000000 -0.000000
vn 0.039500 0.915300 -0.400900
vn 0.116900 0.915300 -0.385500
vn 0.189900 0.915300 -0.355300
vn 0.255600 0.915300 -0.311400
vn 0.311400 0.915300 -0.255600
vn 0.355300 0.915300 -0.189900
vn 0.385500 0.915300 -0.116900
vn 0.400900 0.915300 -0.039500
vn 0.400900 0.915300 0.039500
vn 0.385500 0.915300 0.116900
vn 0.355300 0.915300 0.189900
vn 0.311400 0.915300 0.255600
vn 0.255600 0.915300 0.311400
vn 0.189900 0.915300 0.355300
vn 0.116900 0.915300 0.385500
vn 0.039500 0.915300 0.400900
vn -0.039500 0.915300 0.400900
vn -0.116900 0.915300 0.385500
vn -0.189900 0.915300 0.355300
vn -0.255600 0.915300 0.311400
vn -0.311400 0.915300 0.255600
vn -0.355300 0.915300 0.189900
vn -0.385500 0.915300 0.116900
vn -0.400900 0.915300 0.039500
vn -0.400900 0.915300 -0.039500
vn -0.385500 0.915300 -0.116900
vn -0.355300 0.915300 -0.189900
vn -0.311400 0.915300 -0.255600
vn -0.255600 0.915300 -0.311400
vn -0.189900 0.915300 -0.355300
vn -0.116900 0.915300 -0.385500
vn -0.039500 0.915300 -0.400900
usemtl None
s off
f 1//1 66//1 65//1 3//1
f 3//2 65//2 67//2 5//2
f 5//3 67//3 68//3 7//3
f 7//4 68//4 69//4 9//4
f 9//5 69//5 70//5 11//5
f 11//6 70//6 71//6 13//6
f 13//7 71//7 72//7 15//7
f 15//8 72//8 73//8 17//8
f 17//9 73//9 74//9 19//9
f 19//10 74//10 75//10 21//10
f 21//11 75//11 76//11 23//11
f 23//12 76//12 77//12 25//12
f 25//13 77//13 78//13 27//13
f 27//14 78//14 79//14 29//14
f 29//15 79//15 80//15 31//15
f 31//16 80//16 81//16 33//16
f 33//17 81//17 82//17 35//17
f 35//18 82//18 83//18 37//18
f 37//19 83//19 84//19 39//19
f 39//20 84//20 85//20 41//20
f 41//21 85//21 86//21 43//21
f 43//22 86//22 87//22 45//22
f 45//23 87//23 88//23 47//23
f 47//24 88//24 89//24 49//24
f 49//25 89//25 90//25 51//25
f 51//26 90//26 91//26 53//26
f 53//27 91//27 92//27 55//27
f 55//28 92//28 93//28 57//28
f 57//29 93//29 94//29 59//29
f 59//30 94//30 95//30 61//30
f 4//31 2//31 64//31 62//31 60//31 58//31 56//31 54//31 52//31 50//31 48//31 46//31 44//31 42//31 40//31 38//31 36//31 34//31 32//31 30//31 28//31 26//31 24//31 22//31 20//31 18//31 16//31 14//31 12//31 10//31 8//31 6//31
f 63//32 96//32 66//32 1//32
f 61//33 95//33 96//33 63//33
f 1//34 3//34 5//34 7//34 9//34 11//34 13//34 15//34 17//34 19//34 21//34 23//34 25//34 27//34 29//34 31//34 33//34 35//34 37//34 39//34 41//34 43//34 45//34 47//34 49//34 51//34 53//34 55//34 57//34 59//34 61//34 63//34
f 2//35 4//35 65//35 66//35
f 4//36 6//36 67//36 65//36
f 6//37 8//37 68//37 67//37
f 8//38 10//38 69//38 68//38
f 10//39 12//39 70//39 69//39
f 12//40 14//40 71//40 70//40
f 14//41 16//41 72//41 71//41
f 16//42 18//42 73//42 72//42
f 18//43 20//43 74//43 73//43
f 20//44 22//44 75//44 74//44
f 22//45 24//45 76//45 75//45
f 24//46 26//46 77//46 76//46
f 26//47 28//47 78//47 77//47
f 28//48 30//48 79//48 78//48
f 30//49 32//49 80//49 79//49
f 32//50 34//50 81//50 80//50
f 34//51 36//51 82//51 81//51
f 36//52 38//52 83//52 82//52
f 38//53 40//53 84//53 83//53
f 40//54 42//54 85//54 84//54
f 42//55 44//55 86//55 85//55
f 44//56 46//56 87//56 86//56
f 46//57 48//57 88//57 87//57
f 48//58 50//58 89//58 88//58
f 50//59 52//59 90//59 89//59
f 52//60 54//60 91//60 90//60
f 54//61 56//61 92//61 91//61
f 56//62 58//62 93//62 92//62
f 58//63 60//63 94//63 93//63
f 60//64 62//64 95//64 94//64
f 62//65 64//65 96//65 95//65
f 64//66 2//66 66//66 96//66
o Cube.003_Cube.004
v 0.291967 -0.100000 1.259851
v 0.291967 0.100000 1.259851
v 0.291967 -0.100000 1.059851
v 0.291967 0.100000 1.059851
v 0.491967 -0.100000 1.259851
v 0.491967 0.100000 1.259851
v 0.491967 -0.100000 1.059851
v 0.491967 0.100000 1.059851
v 0.291967 -0.100000 1.259851
v 0.291967 0.100000 1.259851
v 0.291967 -0.100000 1.059851
v 0.291967 0.100000 1.059851
v 0.491967 -0.100000 1.259851
v 0.491967 0.100000 1.259851
v 0.491967 -0.100000 1.059851
v 0.491967 0.100000 1.059851
v 0.291967 0.712519 1.259851
v 0.291967 0.712519 1.059851
v 0.491967 0.712519 1.059851
v 0.491967 0.712519 1.259851
v 0.291967 0.915982 1.259851
v 0.291967 0.915982 1.059851
v 0.491967 0.915982 1.059851
v 0.491967 0.915982 1.259851
vn 1.000000 0.000000 0.000000
vn 0.000000 0.000000 1.000000
vn -1.000000 0.000000 0.000000
vn 0.000000 0.000000 -1.000000
vn 0.000000 1.000000 0.000000
vn 0.000000 -1.000000 0.000000
usemtl None
s off
f 98//67 97//67 99//67 100//67
f 100//68 99//68 103//68 104//68
f 104//69 103//69 101//69 102//69
f 102//70 101//70 97//70 98//70
f 97//71 101//71 103//71 99//71
f 102//72 98//72 100//72 104//72
f 106//69 108//69 107//69 105//69
f 108//70 112//70 111//70 107//70
f 112//67 110//67 109//67 111//67
f 110//68 106//68 105//68 109//68
f 105//72 107//72 111//72 109//72
f 106//68 110//68 116//68 113//68
f 116//67 115//67 119//67 120//67
f 112//70 108//70 114//70 115//70
f 110//67 112//67 115//67 116//67
f 108//69 106//69 113//69 114//69
f 120//71 119//71 118//71 117//71
f 114//69 113//69 117//69 118//69
f 113//68 116//68 120//68 117//68
f 115//70 114//70 118//70 119//70
o Cube.002_Cube.003
v -0.840774 -0.100000 1.251246
v -0.840774 0.100000 1.251246
v -0.840774 -0.100000 1.051246
v -0.840774 0.100000 1.051246
v -0.640774 -0.100000 1.251246
v -0.640774 0.100000 1.251246
v -0.640774 -0.100000 1.051246
v -0.640774 0.100000 1.051246
v -0.840774 -0.100000 1.251246
v -0.840774 0.100000 1.251246
v -0.840774 -0.100000 1.051246
v -0.840774 0.100000 1.051246
v -0.640774 -0.100000 1.251246
v -0.640774 0.100000 1.251246
v -0.640774 -0.100000 1.051246
v -0.640774 0.100000 1.051246
v -0.840774 0.712519 1.251246
v -0.840774 0.712519 1.051246
v -0.640774 0.712519 1.051246
v -0.640774 0.712519 1.251246
v -0.840774 0.915982 1.251246
v -0.840774 0.915982 1.051246
v -0.640774 0.915982 1.051246
v -0.640774 0.915982 1.251246
vn 1.000000 0.000000 0.000000
vn 0.000000 0.000000 1.000000
vn -1.000000 0.000000 0.000000
vn 0.000000 0.000000 -1.000000
vn 0.000000 1.000000 0.000000
vn 0.000000 -1.000000 0.000000
usemtl None
s off
f 122//73 121//73 123//73 124//73
f 124//74 123//74 127//74 128//74
f 128//75 127//75 125//75 126//75
f 126//76 125//76 121//76 122//76
f 121//77 125//77 127//77 123//77
f 126//78 122//78 124//78 128//78
f 130//75 132//75 131//75 129//75
f 132//76 136//76 135//76 131//76
f 136//73 134//73 133//73 135//73
f 134//74 130//74 129//74 133//74
f 129//78 131//78 135//78 133//78
f 130//74 134//74 140//74 137//74
f 140//73 139//73 143//73 144//73
f 136//76 132//76 138//76 139//76
f 134//73 136//73 139//73 140//73
f 132//75 130//75 137//75 138//75
f 144//77 143//77 142//77 141//77
f 138//75 137//75 141//75 142//75
f 137//74 140//74 144//74 141//74
f 139//76 138//76 142//76 143//76
o Cube.001_Cube.002
v -0.864949 -0.100000 0.052740
v -0.864949 0.100000 0.052740
v -0.864949 -0.100000 -0.147260
v -0.864949 0.100000 -0.147260
v -0.664949 -0.100000 0.052740
v -0.664949 0.100000 0.052740
v -0.664949 -0.100000 -0.147260
v -0.664949 0.100000 -0.147260
v -0.864949 -0.100000 0.052740
v -0.864949 0.100000 0.052740
v -0.864949 -0.100000 -0.147260
v -0.864949 0.100000 -0.147260
v -0.664949 -0.100000 0.052740
v -0.664949 0.100000 0.052740
v -0.664949 -0.100000 -0.147260
v -0.664949 0.100000 -0.147260
v -0.864949 0.712519 0.052740
v -0.864949 0.712519 -0.147260
v -0.664949 0.712519 -0.147260
v -0.664949 0.712519 0.052740
v -0.864949 0.915982 0.052740
v -0.864949 0.915982 -0.147260
v -0.664949 0.915982 -0.147260
v -0.664949 0.915982 0.052740
vn 1.000000 0.000000 0.000000
vn 0.000000 0.000000 1.000000
vn -1.000000 0.000000 0.000000
vn 0.000000 0.000000 -1.000000
vn 0.000000 1.000000 0.000000
vn 0.000000 -1.000000 0.000000
usemtl None
s off
f 146//79 145//79 147//79 148//79
f 148//80 147//80 151//80 152//80
f 152//81 151//81 149//81 150//81
f 150//82 149//82 145//82 146//82
f 145//83 149//83 151//83 147//83
f 150//84 146//84 148//84 152//84
f 154//81 156//81 155//81 153//81
f 156//82 160//82 159//82 155//82
f 160//79 158//79 157//79 159//79
f 158//80 154//80 153//80 157//80
f 153//84 155//84 159//84 157//84
f 154//80 158//80 164//80 161//80
f 164//79 163//79 167//79 168//79
f 160//82 156//82 162//82 163//82
f 158//79 160//79 163//79 164//79
f 156//81 154//81 161//81 162//81
f 168//83 167//83 166//83 165//83
f 162//81 161//81 165//81 166//81
f 161//80 164//80 168//80 165//80
f 163//82 162//82 166//82 167//82
o Cube_Cube.001
v 0.313495 -0.100000 0.040925
v 0.313495 0.100000 0.040925
v 0.313495 -0.100000 -0.159075
v 0.313495 0.100000 -0.159075
v 0.513495 -0.100000 0.040925
v 0.513495 0.100000 0.040925
v 0.513495 -0.100000 -0.159075
v 0.513495 0.100000 -0.159075
v 0.313495 -0.100000 0.040925
v 0.313495 0.100000 0.040925
v 0.313495 -0.100000 -0.159075
v 0.313495 0.100000 -0.159075
v 0.513495 -0.100000 0.040925
v 0.513495 0.100000 0.040925
v 0.513495 -0.100000 -0.159075
v 0.513495 0.100000 -0.159075
v 0.313495 0.712519 0.040925
v 0.313495 0.712519 -0.159075
v 0.513495 0.712519 -0.159075
v 0.513495 0.712519 0.040925
v 0.313495 0.915982 0.040925
v 0.313495 0.915982 -0.159075
v 0.513495 0.915982 -0.159075
v 0.513495 0.915982 0.040925
vn 1.000000 0.000000 0.000000
vn 0.000000 0.000000 1.000000
vn -1.000000 0.000000 0.000000
vn 0.000000 0.000000 -1.000000
vn 0.000000 1.000000 0.000000
vn 0.000000 -1.000000 0.000000
usemtl None
s off
f 170//85 169//85 171//85 172//85
f 172//86 171//86 175//86 176//86
f 176//87 175//87 173//87 174//87
f 174//88 173//88 169//88 170//88
f 169//89 173//89 175//89 171//89
f 174//90 170//90 172//90 176//90
f 178//87 180//87 179//87 177//87
f 180//88 184//88 183//88 179//88
f 184//85 182//85 181//85 183//85
f 182//86 178//86 177//86 181//86
f 177//90 179//90 183//90 181//90
f 178//86 182//86 188//86 185//86
f 188//85 187//85 191//85 192//85
f 184//88 180//88 186//88 187//88
f 182//85 184//85 187//85 188//85
f 180//87 178//87 185//87 186//87
f 192//89 191//89 190//89 189//89
f 186//87 185//87 189//87 190//87
f 185//86 188//86 192//86 189//86
f 187//88 186//88 190//88 191//88
